<svg width="168" height="20" viewBox="0 0 168 20" xmlns="http://www.w3.org/2000/svg"><title>25B5D01C-4EE1-429C-AC59-E6B49F8CB36A</title><g fill="none" fill-rule="evenodd"><path d="M100.637 8.188c-.73-.948-1.584-1.684-2.515-2.188h3.872v4.563a10.223 10.223 0 0 0-1.357-2.375zm-5.583-1.702c3.568 0 6.478 3.804 6.544 8.514H93V6.924a5.079 5.079 0 0 1 2.054-.438zm12.078 7.123l4.805-5.82h-4.653v-1.27h6.514v1.06l-4.804 5.82h4.804v1.27h-6.666v-1.06zm8.458-7.09h6.025v1.293h-4.606v2.095h4.083V11.2h-4.083v2.177h4.665v1.292h-6.084V6.52zm7.794 0h3.63c.51 0 .965.073 1.36.216.396.144.725.344.989.6.217.225.384.485.5.78.117.295.175.62.175.977v.024c0 .333-.049.634-.146.902-.097.267-.23.504-.401.71-.17.206-.374.38-.61.524a3.022 3.022 0 0 1-.786.331l2.199 3.085h-1.687l-2.007-2.84h-1.797v2.84h-1.42V6.52zm3.52 4.04c.513 0 .921-.123 1.224-.368.304-.246.456-.579.456-1v-.023c0-.444-.148-.781-.444-1.011-.295-.23-.712-.345-1.248-.345h-2.09v2.747h2.101zm8.776 4.249c-.629 0-1.203-.11-1.722-.332a4.087 4.087 0 0 1-1.338-.902 4.219 4.219 0 0 1-1.187-2.957v-.023c0-.574.105-1.115.315-1.624.21-.508.504-.954.884-1.338.38-.385.83-.69 1.35-.914a4.287 4.287 0 0 1 1.72-.338c.63 0 1.203.11 1.723.332.519.221.965.522 1.337.902a4.22 4.22 0 0 1 1.187 2.957v.023a4.22 4.22 0 0 1-.314 1.624c-.21.508-.504.954-.884 1.338-.38.385-.83.69-1.35.914a4.286 4.286 0 0 1-1.721.338zm.023-1.316c.401 0 .77-.075 1.106-.227.336-.15.624-.356.863-.616.24-.26.427-.565.562-.914.135-.35.203-.722.203-1.118v-.023c0-.396-.068-.77-.203-1.123a2.792 2.792 0 0 0-.568-.92 2.746 2.746 0 0 0-.874-.623 2.646 2.646 0 0 0-1.112-.232 2.624 2.624 0 0 0-1.97.844c-.239.26-.426.564-.561.913-.136.35-.203.722-.203 1.118v.023c0 .396.067.77.203 1.123.135.353.324.66.567.92.243.26.535.467.875.623.34.155.71.232 1.112.232zm5.98-6.972h3.036c.635 0 1.219.103 1.75.308.531.206.99.491 1.373.856.384.365.68.793.89 1.286.21.493.314 1.026.314 1.6v.024c0 .574-.105 1.11-.314 1.606-.21.497-.506.928-.89 1.293a4.21 4.21 0 0 1-1.373.86 4.732 4.732 0 0 1-1.75.315h-3.037V6.52zm3.024 6.856c.426 0 .814-.068 1.163-.204.35-.137.646-.328.89-.573.244-.246.434-.538.57-.877.136-.339.204-.707.204-1.105v-.023a2.99 2.99 0 0 0-.204-1.11 2.582 2.582 0 0 0-.57-.883 2.614 2.614 0 0 0-.89-.579 3.095 3.095 0 0 0-1.163-.21H143.1v5.564h1.606zm6.072-6.856h1.42v3.387h3.908V6.52h1.42v8.148h-1.42v-3.434h-3.909v3.434h-1.419V6.52zm11.726-.058h1.327l3.582 8.206h-1.512l-.826-1.967h-3.85l-.838 1.967h-1.466l3.583-8.206zm2.048 4.97l-1.408-3.26-1.396 3.26h2.804z" fill="#C7D5E2"/><g fill="#374367"><path d="M44.625.5v18.586h3.641V.5zM69.39 4.108l-.038-.048C67.285 1.738 64.945.561 62.396.561h-.882c-1.43 0-3.018.503-4.72 1.495l-.082.054c-2.72 2.12-4.099 4.578-4.099 7.307v9.67h3.508v-8.798c0-1.01.12-1.857.357-2.516 1.213-2.52 2.995-3.745 5.448-3.745 1.41 0 2.55.366 3.483 1.118l.062.045c1.6 1.031 2.377 2.794 2.377 5.388v8.507H71.356v-9.67c0-1.775-.661-3.561-1.965-5.308M15.502 9.804v.02c0 3.321-2.724 6.014-6.084 6.014-3.361 0-6.086-2.693-6.086-6.014 0-3.322 2.725-6.015 6.086-6.015 1.548 0 2.96.573 4.033 1.513l2.214-2.461A9.443 9.443 0 0 0 9.418.516C4.216.516 0 4.683 0 9.824c0 5.14 4.216 9.308 9.418 9.308 5.2 0 9.417-4.168 9.417-9.308V9.81l-3.333-.006zM34.7 10.652a.864.864 0 0 1-.87-.859c0-1.54-1.267-2.792-2.824-2.792a.864.864 0 0 1-.87-.86c0-.474.39-.859.87-.859 2.516 0 4.563 2.024 4.563 4.511 0 .474-.389.86-.869.86"/><path d="M31.006 15.838c-3.361 0-6.086-2.693-6.086-6.014 0-3.322 2.725-6.015 6.086-6.015 3.36 0 6.085 2.693 6.085 6.015 0 3.321-2.725 6.014-6.085 6.014m0-15.322c-5.202 0-9.418 4.167-9.418 9.308 0 5.14 4.216 9.308 9.418 9.308 5.2 0 9.417-4.168 9.417-9.308S36.207.516 31.006.516"/></g></g></svg>