<?xml version="1.0" encoding="UTF-8" standalone="no"?>
<svg
   xmlns:dc="http://purl.org/dc/elements/1.1/"
   xmlns:cc="http://creativecommons.org/ns#"
   xmlns:rdf="http://www.w3.org/1999/02/22-rdf-syntax-ns#"
   xmlns:svg="http://www.w3.org/2000/svg"
   xmlns="http://www.w3.org/2000/svg"
   xmlns:sodipodi="http://sodipodi.sourceforge.net/DTD/sodipodi-0.dtd"
   xmlns:inkscape="http://www.inkscape.org/namespaces/inkscape"
   width="276.54504"
   height="23.878857"
   viewBox="0 0 276.54504 23.878857"
   version="1.1"
   id="svg1053"
   sodipodi:docname="logo.svg"
   inkscape:version="1.0.2 (e86c870879, 2021-01-15)">
  <metadata
     id="metadata1057">
    <rdf:RDF>
      <cc:Work
         rdf:about="">
        <dc:format>image/svg+xml</dc:format>
        <dc:type
           rdf:resource="http://purl.org/dc/dcmitype/StillImage" />
        <dc:title>Group 13</dc:title>
      </cc:Work>
    </rdf:RDF>
  </metadata>
  <sodipodi:namedview
     pagecolor="#ffffff"
     bordercolor="#666666"
     borderopacity="1"
     objecttolerance="10"
     gridtolerance="10"
     guidetolerance="10"
     inkscape:pageopacity="0"
     inkscape:pageshadow="2"
     inkscape:window-width="2048"
     inkscape:window-height="1079"
     id="namedview1055"
     showgrid="false"
     fit-margin-top="0"
     fit-margin-left="0"
     fit-margin-right="0"
     fit-margin-bottom="0"
     inkscape:zoom="2"
     inkscape:cx="209.6371"
     inkscape:cy="11.999988"
     inkscape:window-x="0"
     inkscape:window-y="0"
     inkscape:window-maximized="1"
     inkscape:current-layer="svg1053" />
  <!-- Generator: Sketch 41 (35326) - http://www.bohemiancoding.com/sketch -->
  <title
     id="title1037">Group 13</title>
  <desc
     id="desc1039">Created with Sketch.</desc>
  <defs
     id="defs1041" />
  <path
     d="M 49.680013,19.999987 V 3.8239874 h 3.024 V 19.999987 Z m 6.864,-8.064 6.024,8.064 h -3.816 l -5.808,-8.016 5.592,-8.1599996 h 3.624 z m 8.208,8.064 V 7.8319874 h 2.88 V 19.999987 Z m -0.288,-15.8159996 c 0,-0.4800024 0.167998,-0.8879983 0.504,-1.224 0.336002,-0.3360017 0.743998,-0.504 1.224,-0.504 0.480002,0 0.887998,0.1679983 1.224,0.504 0.336002,0.3360017 0.504,0.7439976 0.504,1.224 0,0.4960025 -0.167998,0.9119983 -0.504,1.248 -0.336002,0.3360017 -0.743998,0.504 -1.224,0.504 -0.480002,0 -0.887998,-0.1679983 -1.224,-0.504 -0.336002,-0.3360017 -0.504,-0.7519975 -0.504,-1.248 z m 9.912,5.808 v 6.1919996 c 0,0.512003 0.135999,0.899999 0.408,1.164 0.272001,0.264001 0.647998,0.396 1.128,0.396 0.608003,0 1.167997,-0.167998 1.68,-0.504 v 2.472 c -0.560003,0.272001 -1.279996,0.408 -2.16,0.408 -2.624013,0 -3.936,-1.327987 -3.936,-3.984 V 9.9919874 h -1.824 v -2.16 h 1.824 v -2.928 h 2.88 v 2.928 h 3.024 v 2.16 z m 12.912,2.9279996 v -0.36 c -0.032,-0.784004 -0.243998,-1.411998 -0.636,-1.884 -0.392002,-0.472002 -0.963996,-0.7079996 -1.716,-0.7079996 -0.688003,0 -1.283998,0.2519976 -1.788,0.7559996 -0.504003,0.504003 -0.827999,1.235995 -0.972,2.196 z m 1.968,3.912 v 2.496 c -0.848004,0.528003 -2.071992,0.792 -3.672,0.792 -1.93601,0 -3.463994,-0.575994 -4.584,-1.728 -1.120006,-1.152006 -1.68,-2.639991 -1.68,-4.464 0,-1.93601 0.527995,-3.455994 1.584,-4.5599996 1.056005,-1.1040055 2.375992,-1.656 3.96,-1.656 1.584008,0 2.839995,0.4799952 3.768,1.44 0.928005,0.9600046 1.392,2.3599906 1.392,4.1999996 0,0.448002 -0.056,1.023996 -0.168,1.728 h -7.632 c 0.208001,0.880004 0.643997,1.551998 1.308,2.016 0.664003,0.464002 1.491995,0.696 2.484,0.696 1.280006,0 2.359996,-0.319997 3.24,-0.96 z M 110.52001,4.4959874 v 2.952 c -1.21601,-0.7040035 -2.55999,-1.056 -4.032,-1.056 -1.47201,0 -2.7,0.499995 -3.684,1.5 -0.984,1.000005 -1.476,2.3399916 -1.476,4.0199996 0,1.680008 0.492,3.015995 1.476,4.008 0.984,0.992005 2.26799,1.488 3.852,1.488 1.52001,0 2.816,-0.399996 3.888,-1.2 v 3.024 c -0.992,0.640003 -2.38399,0.96 -4.176,0.96 -2.40001,0 -4.37999,-0.755992 -5.94,-2.268 -1.560007,-1.512008 -2.339997,-3.515987 -2.339997,-6.012 0,-2.4480118 0.77199,-4.4439919 2.315997,-5.9879996 1.54401,-1.5440077 3.53199,-2.316 5.964,-2.316 1.77601,0 3.16,0.295997 4.152,0.888 z m 7.92,15.6959996 c -1.84001,0 -3.27599,-0.575994 -4.308,-1.728 -1.032,-1.152006 -1.548,-2.623991 -1.548,-4.416 0,-1.856009 0.536,-3.387994 1.608,-4.5959996 1.072,-1.208006 2.48799,-1.812 4.248,-1.812 1.87201,0 3.31999,0.5879941 4.344,1.764 1.024,1.1760056 1.536,2.6679906 1.536,4.4759996 0,1.840009 -0.516,3.351994 -1.548,4.536 -1.03201,1.184006 -2.47599,1.776 -4.332,1.776 z m 0,-10.1999996 c -0.912,0 -1.612,0.3759956 -2.1,1.1279996 -0.488,0.752004 -0.732,1.695994 -0.732,2.832 0,1.120006 0.248,2.055996 0.744,2.808 0.496,0.752004 1.2,1.128 2.112,1.128 0.94401,0 1.656,-0.367996 2.136,-1.104 0.48,-0.736004 0.72,-1.671994 0.72,-2.808 0,-1.168006 -0.232,-2.123996 -0.696,-2.868 -0.464,-0.744004 -1.19199,-1.1159996 -2.184,-1.1159996 z m 11.232,-2.16 v 2.088 c 0.688,-1.4880074 1.93599,-2.232 3.744,-2.232 1.21601,0 2.176,0.3679963 2.88,1.104 0.704,0.7360037 1.056,1.7759926 1.056,3.1199996 v 8.088 h -2.88 v -7.488 c 0,-0.800004 -0.192,-1.403998 -0.576,-1.812 -0.384,-0.408002 -0.904,-0.612 -1.56,-0.612 -0.752,0 -1.384,0.291997 -1.896,0.876 -0.512,0.584003 -0.768,1.419995 -0.768,2.508 v 6.528 h -2.88 V 7.8319874 Z m 13.56,0 v 2.088 c 0.688,-1.4880074 1.93599,-2.232 3.744,-2.232 1.21601,0 2.176,0.3679963 2.88,1.104 0.704,0.7360037 1.056,1.7759926 1.056,3.1199996 v 8.088 h -2.88 v -7.488 c 0,-0.800004 -0.192,-1.403998 -0.576,-1.812 -0.384,-0.408002 -0.904,-0.612 -1.56,-0.612 -0.752,0 -1.384,0.291997 -1.896,0.876 -0.512,0.584003 -0.768,1.419995 -0.768,2.508 v 6.528 h -2.88 V 7.8319874 Z m 18,5.0879996 v -0.36 c -0.032,-0.784004 -0.244,-1.411998 -0.636,-1.884 -0.392,-0.472002 -0.964,-0.7079996 -1.716,-0.7079996 -0.688,0 -1.284,0.2519976 -1.788,0.7559996 -0.504,0.504003 -0.828,1.235995 -0.972,2.196 z m 1.968,3.912 v 2.496 c -0.848,0.528003 -2.07199,0.792 -3.672,0.792 -1.93601,0 -3.46399,-0.575994 -4.584,-1.728 -1.12001,-1.152006 -1.68,-2.639991 -1.68,-4.464 0,-1.93601 0.52799,-3.455994 1.584,-4.5599996 1.056,-1.1040055 2.37599,-1.656 3.96,-1.656 1.58401,0 2.83999,0.4799952 3.768,1.44 0.928,0.9600046 1.392,2.3599906 1.392,4.1999996 0,0.448002 -0.056,1.023996 -0.168,1.728 h -7.632 c 0.208,0.880004 0.644,1.551998 1.308,2.016 0.664,0.464002 1.49199,0.696 2.484,0.696 1.28001,0 2.36,-0.319997 3.24,-0.96 z m 5.712,-2.88 c 0.032,1.152006 0.38,2.079997 1.044,2.784 0.664,0.704003 1.56399,1.056 2.7,1.056 0.992,0 1.912,-0.271997 2.76,-0.816 v 2.496 c -0.848,0.496002 -1.90399,0.744 -3.168,0.744 -1.87201,0 -3.38799,-0.591994 -4.548,-1.776 -1.16001,-1.184006 -1.74,-2.679991 -1.74,-4.488 0.016,-1.776009 0.59599,-3.271994 1.74,-4.4879996 1.14401,-1.2160061 2.70799,-1.824 4.692,-1.824 1.18401,0 2.192,0.2239978 3.024,0.672 v 2.5439996 c -0.8,-0.512003 -1.712,-0.768 -2.736,-0.768 -1.12001,0 -2.024,0.351996 -2.712,1.056 -0.688,0.704004 -1.04,1.639994 -1.056,2.808 z m 12.48,-3.9599996 v 6.1919996 c 0,0.512003 0.136,0.899999 0.408,1.164 0.272,0.264001 0.648,0.396 1.128,0.396 0.608,0 1.168,-0.167998 1.68,-0.504 v 2.472 c -0.56,0.272001 -1.28,0.408 -2.16,0.408 -2.62401,0 -3.936,-1.327987 -3.936,-3.984 V 9.9919874 h -1.824 v -2.16 h 1.824 v -2.928 h 2.88 v 2.928 h 3.024 v 2.16 z"
     id="Kite-Connect"
     fill="#222222"
     style="fill-rule:evenodd;stroke:none;stroke-width:1" />
  <g
     id="Page-1"
     style="fill:none;fill-rule:evenodd;stroke:none;stroke-width:1"
     transform="translate(1.2587414e-5,-1.2565444e-5)">
    <polygon
       id="Fill-1"
       fill="#f33d2c"
       points="11.959792,1.2565444e-05 -1.2587414e-05,11.938819 11.959792,23.877876 23.919722,11.938944 " />
    <polygon
       id="Fill-2"
       fill="#f33d2c"
       points="11.959112,0.00069109947 23.918916,11.939623 35.87872,0.00069109947 " />
    <polygon
       id="Fill-3"
       fill="#db342c"
       points="11.959678,23.878869 35.879287,23.878869 23.919483,11.939937 " />
  </g>
  <g
     id="g1228"
     transform="matrix(0.12760953,0,0,0.12760953,199.74504,8.5004225)"
     style="fill:#b3b3b3">
    <g
       id="g1210"
       style="fill:#b3b3b3">
      <g
         id="g1204"
         style="fill:#b3b3b3">
        <path
           fill-rule="evenodd"
           fill="#387ed1"
           d="m 66.252,21.469 c 4.404,5.71 8.056,12.124 10.886,19.04 V 3.931 H 46.077 c 7.472,4.037 14.317,9.943 20.175,17.538 z"
           id="path1202"
           style="fill:#b3b3b3" />
      </g>
      <g
         id="g1208"
         style="fill:#b3b3b3">
        <path
           fill-rule="evenodd"
           fill="#387ed1"
           d="M 21.473,7.828 C 15.719,7.828 10.184,9.058 5,11.334 V 76.069 H 73.963 C 73.429,38.315 50.088,7.828 21.473,7.828"
           id="path1206"
           style="fill:#b3b3b3" />
      </g>
    </g>
    <g
       id="g1226"
       style="fill:#b3b3b3">
      <path
         fill="#387ed1"
         d="m 118.349,64.918 38.533,-46.65 H 119.56 V 8.098 h 52.25 v 8.49 l -38.533,46.651 h 38.533 v 10.169 h -53.461 z"
         id="path1212"
         style="fill:#b3b3b3" />
      <path
         fill="#387ed1"
         d="m 186.177,8.098 h 48.331 V 18.454 H 197.56 v 16.794 h 32.751 V 45.605 H 197.56 v 17.446 h 37.413 v 10.356 h -48.796 z"
         id="path1214"
         style="fill:#b3b3b3" />
      <path
         fill="#387ed1"
         d="m 248.689,8.098 h 29.11 c 4.105,0 7.744,0.576 10.917,1.726 3.171,1.151 5.814,2.752 7.93,4.805 1.741,1.805 3.08,3.888 4.013,6.251 0.933,2.364 1.398,4.977 1.398,7.837 v 0.187 c 0,2.675 -0.388,5.085 -1.165,7.231 -0.779,2.146 -1.853,4.044 -3.22,5.691 -1.369,1.648 -3.001,3.049 -4.898,4.198 -1.897,1.152 -3.997,2.038 -6.297,2.659 L 304.11,73.408 H 290.581 L 274.484,50.643 h -0.186 -14.227 V 73.408 H 248.688 V 8.098 Z m 28.231,32.375 c 4.115,0 7.393,-0.982 9.824,-2.951 2.434,-1.968 3.652,-4.639 3.652,-8.012 v -0.187 c 0,-3.56 -1.188,-6.263 -3.559,-8.106 -2.369,-1.842 -5.709,-2.764 -10.014,-2.764 h -16.752 v 22.019 h 16.849 z"
         id="path1216"
         style="fill:#b3b3b3" />
      <path
         fill="#387ed1"
         d="m 347.309,74.528 c -5.039,0 -9.641,-0.886 -13.807,-2.658 -4.168,-1.772 -7.744,-4.182 -10.73,-7.232 -2.986,-3.047 -5.318,-6.607 -6.996,-10.682 -1.682,-4.073 -2.521,-8.413 -2.521,-13.016 v -0.187 c 0,-4.603 0.84,-8.941 2.521,-13.016 1.678,-4.073 4.041,-7.651 7.09,-10.73 3.045,-3.079 6.654,-5.52 10.824,-7.324 4.166,-1.803 8.768,-2.706 13.807,-2.706 5.037,0 9.641,0.886 13.809,2.659 4.166,1.772 7.744,4.184 10.73,7.231 2.984,3.048 5.316,6.609 6.996,10.683 1.682,4.074 2.521,8.413 2.521,13.015 v 0.187 c 0,4.604 -0.84,8.943 -2.521,13.015 -1.68,4.075 -4.043,7.651 -7.09,10.73 -3.049,3.078 -6.656,5.521 -10.824,7.324 -4.168,1.803 -8.77,2.707 -13.809,2.707 z m 0.187,-10.543 c 3.221,0 6.178,-0.606 8.871,-1.819 2.695,-1.214 5.002,-2.86 6.922,-4.944 1.918,-2.084 3.422,-4.526 4.506,-7.325 1.084,-2.799 1.625,-5.785 1.625,-8.956 v -0.187 c 0,-3.172 -0.541,-6.173 -1.625,-9.004 -1.084,-2.83 -2.604,-5.286 -4.553,-7.37 -1.951,-2.083 -4.289,-3.747 -7.016,-4.992 -2.725,-1.244 -5.697,-1.866 -8.918,-1.866 -3.221,0 -6.178,0.606 -8.871,1.819 -2.695,1.213 -5.002,2.862 -6.922,4.945 -1.92,2.085 -3.422,4.525 -4.508,7.324 -1.084,2.799 -1.625,5.785 -1.625,8.957 v 0.187 c 0,3.172 0.541,6.173 1.625,9.002 1.086,2.833 2.604,5.289 4.555,7.372 1.951,2.085 4.289,3.748 7.014,4.991 2.727,1.244 5.699,1.866 8.92,1.866 z"
         id="path1218"
         style="fill:#b3b3b3" />
      <path
         fill="#387ed1"
         d="m 395.451,8.098 h 24.354 c 5.1,0 9.779,0.825 14.043,2.473 4.26,1.648 7.928,3.934 11.008,6.857 3.08,2.924 5.457,6.361 7.139,10.311 1.68,3.95 2.52,8.227 2.52,12.829 v 0.187 c 0,4.604 -0.84,8.896 -2.52,12.875 -1.682,3.98 -4.059,7.435 -7.139,10.356 -3.08,2.926 -6.748,5.226 -11.008,6.904 -4.264,1.68 -8.943,2.519 -14.043,2.519 h -24.354 z m 24.26,54.954 c 3.42,0 6.531,-0.545 9.33,-1.639 2.799,-1.094 5.18,-2.622 7.137,-4.589 1.959,-1.969 3.482,-4.312 4.572,-7.03 1.088,-2.717 1.635,-5.667 1.635,-8.854 v -0.187 c 0,-3.186 -0.547,-6.152 -1.635,-8.9 -1.09,-2.749 -2.613,-5.106 -4.572,-7.074 -1.957,-1.969 -4.338,-3.514 -7.137,-4.639 -2.799,-1.124 -5.91,-1.687 -9.33,-1.687 h -12.877 v 44.598 h 12.877 z"
         id="path1220"
         style="fill:#b3b3b3" />
      <path
         fill="#387ed1"
         d="m 468.414,8.098 h 11.383 v 27.151 h 31.352 V 8.098 h 11.383 V 73.409 H 511.149 V 45.885 h -31.352 v 27.523 h -11.383 z"
         id="path1222"
         style="fill:#b3b3b3" />
      <path
         fill="#387ed1"
         d="M 562.463,7.631 H 573.1 l 28.736,65.777 H 589.707 L 583.082,57.64 h -30.883 l -6.719,15.768 h -11.756 z m 16.422,39.841 -11.291,-26.125 -11.197,26.125 z"
         id="path1224"
         style="fill:#b3b3b3" />
    </g>
  </g>
</svg>
