<svg xmlns="http://www.w3.org/2000/svg" viewBox="0 0 103 18">
              <g fill="none" fill-rule="nonzero">
                <path fill="#5B5B5B" d="M36.018 14.084c-.504 0-1.064-.028-1.68-.084a11.537 11.537 0 0 1-1.526-.224v-1.358c.84.075 1.88.112 3.122.112.625 0 1.099-.089 1.421-.266.322-.177.483-.5.483-.966v-.49c0-.364-.103-.644-.308-.84-.205-.196-.509-.294-.91-.294h-.966c-.98 0-1.715-.215-2.205-.644-.49-.43-.735-1.125-.735-2.086v-.532c0-.97.27-1.685.812-2.142.541-.457 1.344-.686 2.408-.686.485 0 1.015.033 1.589.098.574.065 1.066.14 1.477.224v1.358c-1.26-.084-2.217-.126-2.87-.126-.588 0-1.029.096-1.323.287-.294.191-.441.544-.441 1.057v.35c0 .42.114.723.343.91.229.187.576.28 1.043.28h1.078c.868 0 1.528.236 1.981.707.453.471.679 1.094.679 1.869v.658c0 1.073-.299 1.813-.896 2.219-.597.406-1.456.609-2.576.609zm7.532-.014c-.653 0-1.216-.145-1.687-.434-.471-.29-.707-.873-.707-1.75V5.922c0-.793.215-1.367.644-1.722.43-.355.947-.532 1.554-.532.877 0 1.633.014 2.268.042.635.028 1.363.065 2.184.112v1.442H43.9c-.327 0-.579.082-.756.245-.177.163-.266.408-.266.735v1.834l4.298.098v1.358l-4.298.098v1.778c0 .69.336 1.036 1.008 1.036h3.92v1.442c-1.176.103-2.595.163-4.256.182zm6.034-10.402h1.386l4.704 7.378V3.668h1.736V14h-1.386L51.32 6.622V14h-1.736V3.668zm12.698 10.416c-.504 0-1.064-.028-1.68-.084a11.537 11.537 0 0 1-1.526-.224v-1.358c.84.075 1.88.112 3.122.112.625 0 1.099-.089 1.421-.266.322-.177.483-.5.483-.966v-.49c0-.364-.103-.644-.308-.84-.205-.196-.509-.294-.91-.294h-.966c-.98 0-1.715-.215-2.205-.644-.49-.43-.735-1.125-.735-2.086v-.532c0-.97.27-1.685.812-2.142.541-.457 1.344-.686 2.408-.686.485 0 1.015.033 1.589.098.574.065 1.066.14 1.477.224v1.358c-1.26-.084-2.217-.126-2.87-.126-.588 0-1.029.096-1.323.287-.294.191-.441.544-.441 1.057v.35c0 .42.114.723.343.91.229.187.576.28 1.043.28h1.078c.868 0 1.528.236 1.981.707.453.471.679 1.094.679 1.869v.658c0 1.073-.299 1.813-.896 2.219-.597.406-1.456.609-2.576.609zM67.42 3.668h1.722V14H67.42V3.668zm3.654 0h3.948c1.904 0 2.856.896 2.856 2.688 0 .607-.133 1.108-.399 1.505a1.769 1.769 0 0 1-1.057.763c.495.121.917.39 1.267.805.35.415.525.987.525 1.715 0 1.027-.252 1.76-.756 2.198-.504.439-1.26.658-2.268.658h-4.116V3.668zm3.976 4.368c.355 0 .64-.13.854-.392.215-.261.322-.611.322-1.05 0-.915-.406-1.372-1.218-1.372h-2.212v2.814h2.254zm.084 4.41c.467 0 .821-.124 1.064-.371.243-.247.364-.656.364-1.225 0-.457-.133-.817-.399-1.078-.266-.261-.609-.392-1.029-.392h-2.338v3.066h2.338zm8.414 1.624c-1.279 0-2.256-.245-2.933-.735S79.6 11.97 79.6 10.71V3.668h1.722v7.042c0 .653.187 1.118.56 1.393.373.275.929.413 1.666.413.737 0 1.293-.138 1.666-.413.373-.275.56-.74.56-1.393V3.668h1.722v7.042c0 1.26-.338 2.135-1.015 2.625-.677.49-1.654.735-2.933.735zm8.05-.07c-.765 0-1.342-.18-1.729-.539-.387-.36-.581-.95-.581-1.771V3.668h1.722v7.742c0 .383.091.649.273.798.182.15.432.224.749.224h3.43V14h-3.864zm7.476 0c-.765 0-1.342-.18-1.729-.539-.387-.36-.581-.95-.581-1.771V3.668h1.722v7.742c0 .383.091.649.273.798.182.15.432.224.749.224h3.43V14h-3.864z"></path>
                <path fill="#EA4403" d="M17.796 11.849l1.545 1.784-.703 1.412-3.895-.193-.063-1.09 1.277.256 1.787.128.064-.449-2.362-1.155 2.35-.693zM3.442 7.343l-2.17.77-.511-.577-.256.064.576 1.09 2.809-.77-.448-.577zm6.37 7.796l.408 1.082 2.108.962.181.616h1.045l-.534-1.15-1.851-1.026.063-3.338-4.597-1.412-.191.77 3.368 3.496z"></path>
                <path fill="#FF5000" d="M17.808 17.799h-1.02l-.64-1.021 1.341-4.942 1.15-.065-1.39 4.915.56 1.113zM3.506 9.91v2.823l-.702.064.958 5.006h1.086l-.128-.77-.511-2.888 2.434-2.556.439-.46L3.506 9.91z"></path>
                <path fill="#FF5000" d="M23.81 10.616v.578l-2.138 2.15h-.99v-2.085l-2.885.718-4.586 1.143-9.704-3.145-.065-2.632L8.36 4.84l8.94-4.814 6.511 6.482v2.504h2.681z"></path>
              </g>
            </svg>