<?xml version="1.0" encoding="UTF-8"?>
<svg width="52px" height="68px" viewBox="0 0 52 68" version="1.1" xmlns="http://www.w3.org/2000/svg" xmlns:xlink="http://www.w3.org/1999/xlink">
    <!-- Generator: sketchtool 42 (36781) - http://www.bohemiancoding.com/sketch -->
    <title>A7A992EB-C414-4B58-90CF-3776A93046FB</title>
    <desc>Created with sketchtool.</desc>
    <defs></defs>
    <g id="Page-1" stroke="none" stroke-width="1" fill="none" fill-rule="evenodd">
        <g id="Home-Page" transform="translate(-907.000000, -1432.000000)" fill-rule="nonzero" fill="#3F4D71">
            <g id="Section---Pricing" transform="translate(0.000000, 1325.000000)">
                <g id="Coin" transform="translate(935.362808, 142.959002) rotate(-15.000000) translate(-935.362808, -142.959002) translate(907.862808, 108.959002)">
                    <path d="M47.8988889,11.264 C47.1423333,9.88166667 44.4241111,4.92677778 43.6675556,3.54811111 C43.3766667,3.01766667 42.9867778,2.55566667 42.5088889,2.15966667 C41.0752222,0.974111111 38.8471111,0.394777778 36.1117778,0.394777778 L36.1093333,0.394777778 C31.2057778,0.394777778 24.6717778,2.255 18.1573333,5.82877778 C6.79555556,12.0584444 -0.210222222,21.1371111 2.51777778,26.1115556 L2.52022222,26.1201111 C3.27677778,27.5 5.99133333,32.4512222 6.74911111,33.8347778 C9.47588889,38.8067778 20.8987778,37.7837778 32.263,31.5504444 C43.626,25.3171111 50.6281111,16.2347778 47.8988889,11.2615556 L47.8988889,11.264 Z M9.06522222,32.5636667 L7.10355556,28.9874444 C7.67066667,29.1023333 8.26955556,29.1854444 8.91,29.227 L11.5561111,34.0547778 C10.2984444,33.7614444 9.43922222,33.2468889 9.06522222,32.5636667 Z M13.7084444,34.3212222 L10.9193333,29.2404444 C11.5377778,29.2135556 12.1806667,29.1585556 12.8394444,29.0803333 L15.686,34.2686667 C14.9881111,34.3175556 14.3146667,34.3407778 13.7084444,34.3212222 Z M17.578,34.0547778 L14.6911111,28.7931111 C15.279,28.6831111 15.8766667,28.5572222 16.489,28.4093333 L19.4003333,33.7247778 C18.7733333,33.8604444 18.1671111,33.968 17.578,34.0547778 Z M21.1713333,33.2896667 L18.2416667,27.9412222 C18.8051111,27.7786667 19.3771111,27.6026667 19.954,27.4058889 L22.8971111,32.7726667 C22.3092222,32.9621111 21.7347778,33.1368889 21.1713333,33.2896667 Z M24.5788889,32.1811111 L21.6308889,26.8082222 C22.2627778,26.5662222 22.902,26.2985556 23.5436667,26.026 L26.4977778,31.416 C25.8487778,31.691 25.2083333,31.9452222 24.5788889,32.1811111 Z M28.1098889,30.6887778 L25.1496667,25.2902222 C25.8475556,24.959 26.5478889,24.6106667 27.2482222,24.2391111 L30.2084444,29.6425556 C29.502,30.0141111 28.8016667,30.3624444 28.1098889,30.6887778 Z M31.7545556,28.7967778 L28.7931111,23.3933333 C29.4812222,23.001 30.1534444,22.5964444 30.8097778,22.187 L33.77,27.5855556 C33.1234444,27.9937778 32.4536667,28.3971111 31.7545556,28.7967778 Z M35.244,26.6163333 L32.2886667,21.2275556 C32.8667778,20.8376667 33.4326667,20.4392222 33.9753333,20.0358889 L36.9245556,25.4087778 C36.388,25.8145556 35.827,26.2166667 35.244,26.6163333 Z M38.3252222,24.3087778 L35.3833333,18.9407778 C35.8587778,18.5594444 36.3122222,18.172 36.7558889,17.7833333 L39.6892222,23.1305556 C39.259,23.5216667 38.8031111,23.9152222 38.3252222,24.3087778 Z M41.0067778,21.8728889 L38.0917778,16.5574444 C38.544,16.1223333 38.9742222,15.686 39.3812222,15.2521111 L42.2681111,20.5125556 C41.8757778,20.9598889 41.4614444,21.4121111 41.0067778,21.8728889 Z M43.4634444,19.0312222 L40.6168889,13.8428889 C41.0397778,13.3295556 41.4284444,12.8174444 41.7816667,12.3102222 L44.5695556,17.391 C44.2603333,17.9141111 43.8802222,18.4677778 43.4634444,19.0312222 Z M45.5021111,15.4305556 L42.8547778,10.6064444 C43.0845556,10.1884444 43.2813333,9.77655556 43.4561111,9.37077778 C43.5416667,9.28888889 43.6284444,9.20455556 43.714,9.12511111 L45.584,12.5314444 C45.9604444,13.2122222 45.9298889,14.2144444 45.5021111,15.4305556 Z M4.83266667,24.8428889 C3.33788889,22.1173333 8.28055556,14.256 19.426,8.14366667 C25.2584444,4.94511111 31.4942222,3.03477778 36.1093333,3.03477778 C38.8214444,3.03477778 40.7317778,3.685 41.3538889,4.81677778 C42.8486667,7.54233333 37.906,15.4036667 26.7605556,21.5172222 C20.9293333,24.7133333 14.6911111,26.6224444 10.0772222,26.6224444 C7.36388889,26.6224444 5.45233333,25.9734444 4.83266667,24.8428889 Z" id="Shape"></path>
                    <path d="M46.6742222,35.6473333 C47.0604444,35.0936667 46.926,34.3322222 46.3711111,33.946 C45.8186667,33.5585556 45.056,33.6942222 44.6697778,34.2491111 C37.5258889,44.4827778 25.6972222,45.0914444 25.5786667,45.0963333 C24.9052222,45.1244444 24.3808889,45.6927778 24.4077778,46.3662222 C24.4346667,47.0237778 24.9748889,47.5395556 25.6275556,47.5395556 C25.6434444,47.5395556 25.6593333,47.5395556 25.6752222,47.5383333 C26.2081111,47.5175556 38.8177778,46.9027778 46.6742222,35.6473333 Z" id="Shape"></path>
                    <path d="M45.2038889,49.5268889 C38.3643333,55.3776667 30.9588889,55.1271111 30.8904444,55.1234444 C30.2292222,55.1014444 29.6462222,55.6123333 29.6132222,56.2857778 C29.5814444,56.9604444 30.1008889,57.5336667 30.7755556,57.5654444 C30.811,57.5666667 30.932,57.5715556 31.1275556,57.5715556 C32.8007778,57.5715556 39.9825556,57.2097778 46.7927778,51.3834444 C47.3061111,50.9446667 47.366,50.1734444 46.9272222,49.6601111 C46.4884444,49.148 45.7172222,49.0893333 45.2038889,49.5268889 Z" id="Shape"></path>
                    <path d="M40.513,63.1485556 C34.7978889,65.2788889 29.7403333,64.5748889 29.689,64.5675556 C29.0118889,64.4661111 28.3995556,64.9317778 28.3017778,65.5978889 C28.2027778,66.2652222 28.6623333,66.8861111 29.3284444,66.9851111 C29.4213333,66.9997778 30.3783333,67.1366667 31.9061111,67.1366667 C34.1427778,67.1366667 37.6028889,66.8433333 41.3661111,65.4402222 C41.9992222,65.2043333 42.3206667,64.5003333 42.0847778,63.8684444 C41.8501111,63.2328889 41.1436667,62.9114444 40.513,63.1485556 Z" id="Shape"></path>
                    <path d="M50.8652222,6.358 C50.4313333,6.10377778 49.8678889,6.24677778 49.61,6.68311111 C49.3533333,7.11944444 49.4987778,7.68044444 49.9351111,7.93833333 C49.9815556,7.96522222 54.5722222,10.7592222 52.6142222,17.4117778 C52.4712222,17.897 52.7486667,18.4066667 53.2338889,18.5496667 C53.3206667,18.5753333 53.4074444,18.5875556 53.493,18.5875556 C53.889,18.5875556 54.2544444,18.3296667 54.3717778,17.93 C56.7306667,9.92077778 50.9238889,6.39344444 50.8652222,6.358 Z" id="Shape"></path>
                    <path d="M9.27177778,40.8931111 C3.87077778,40.8931111 1.94577778,36.9392222 1.86511111,36.7681111 C1.65366667,36.3097778 1.10977778,36.113 0.651444444,36.3207778 C0.191888889,36.5322222 -0.011,37.0761111 0.200444444,37.5368889 C0.298222222,37.7483333 2.66077778,42.7264444 9.27177778,42.7264444 C9.77777778,42.7264444 10.1884444,42.3157778 10.1884444,41.8097778 C10.1884444,41.3037778 9.77777778,40.8931111 9.27177778,40.8931111 Z" id="Shape"></path>
                </g>
            </g>
        </g>
    </g>
</svg>