<?xml version="1.0" encoding="UTF-8"?>
<svg width="100px" height="12px" viewBox="0 0 100 12" version="1.1" xmlns="http://www.w3.org/2000/svg" xmlns:xlink="http://www.w3.org/1999/xlink">
    <!-- Generator: sketchtool 42 (36781) - http://www.bohemiancoding.com/sketch -->
    <title>DF6D34E7-6A3F-48DE-8DD5-8C25C9A2F63A</title>
    <desc>Created with sketchtool.</desc>
    <defs></defs>
    <g id="Symbols" stroke="none" stroke-width="1" fill="none" fill-rule="evenodd">
        <g id="Footer" transform="translate(-146.000000, -52.000000)" fill="#F5F7FC">
            <g id="Footer-logo">
                <path d="M156.182672,54.9174633 C155.208506,53.6539832 154.071002,52.6716625 152.828737,52 L157.992353,52 L157.992353,58.0846414 C157.521746,56.9341185 156.914989,55.8671928 156.182672,54.9174633 Z M148.738602,52.6482059 C153.495503,52.6482059 157.375672,57.7197422 157.464529,64 L146,64 L146,53.2315457 C146.86187,52.8528213 147.782006,52.6482059 148.738602,52.6482059 Z M164.84308,62.1451748 L171.249031,54.3848691 L165.044753,54.3848691 L165.044753,52.693083 L173.730714,52.693083 L173.730714,54.1054817 L167.324832,61.8657179 L173.730679,61.8657179 L173.730679,63.557504 L164.84308,63.557504 L164.84308,62.1451748 Z M176.119342,52.6930969 L184.153891,52.6930969 L184.153891,54.4158758 L178.011595,54.4158758 L178.011595,57.2096109 L183.455915,57.2096109 L183.455915,58.9323551 L178.011595,58.9323551 L178.011595,61.8346694 L184.231428,61.8346694 L184.231428,63.5574832 L176.119342,63.5574832 L176.119342,52.6930969 Z M186.511559,52.6931143 L191.350859,52.6931143 C192.033244,52.6931143 192.638265,52.7889072 193.165644,52.9802846 C193.693023,53.171801 194.132379,53.4380894 194.484023,53.7795668 C194.773408,54.0797667 194.995916,54.4262821 195.151025,54.819391 C195.306204,55.2128127 195.383638,55.6473034 195.383638,56.123141 L195.383638,56.1541686 C195.383638,56.5992219 195.318948,57.0001138 195.189742,57.3570528 C195.060363,57.7139571 194.881988,58.0297577 194.654654,58.3038638 C194.427077,58.5780741 194.155644,58.8108333 193.840355,59.0022107 C193.524788,59.1938313 193.175783,59.3412559 192.793444,59.4445538 L195.725004,63.5575353 L193.475898,63.5575353 L190.799902,59.7704652 L190.768756,59.7704652 L188.403986,59.7704652 L188.403986,63.5575353 L186.511559,63.5575353 L186.511559,52.6931143 Z M191.2045,58.0787486 C191.888933,58.0787486 192.433466,57.915237 192.837924,57.587901 C193.242383,57.2605302 193.444855,56.8162414 193.444855,56.2551039 L193.444855,56.2240068 C193.444855,55.6318417 193.247557,55.1822715 192.853446,54.8756438 C192.459439,54.5691897 191.904385,54.4158932 191.18877,54.4158932 L188.403917,54.4158932 L188.403917,58.0787486 L191.2045,58.0787486 Z M202.906284,63.7437808 C202.06865,63.7437808 201.303242,63.5962868 200.610614,63.3014377 C199.917777,63.0065886 199.323278,62.6057314 198.826906,62.0985882 C198.330604,61.5917925 197.942744,60.9992799 197.663671,60.3215023 C197.384391,59.6439678 197.244803,58.922272 197.244803,58.1564497 L197.244803,58.1253526 C197.244803,57.3598081 197.384426,56.6380776 197.663671,55.9603 C197.942744,55.282696 198.335674,54.6876123 198.842428,54.1753963 C199.348903,53.663215 199.948716,53.2572503 200.641691,52.9570157 C201.33425,52.6570243 202.099728,52.5069243 202.937153,52.5069243 C203.774786,52.5069243 204.539986,52.6543836 205.232822,52.9492674 C205.925346,53.2441165 206.520193,53.6452517 207.016495,54.1520822 C207.512832,54.6591906 207.900693,55.2515989 208.179765,55.9291681 C208.459045,56.6069805 208.598599,57.3286763 208.598599,58.0942555 L208.598599,58.1252831 C208.598599,58.8911054 208.458976,59.6128707 208.179765,60.2904052 C207.900693,60.9682523 207.507485,61.5630928 207.001009,62.0752393 C206.494255,62.5873859 205.894477,62.9936981 205.20171,63.2935852 C204.508943,63.5936461 203.743813,63.7437808 202.906284,63.7437808 Z M202.937222,61.9899742 C203.472657,61.9899742 203.964341,61.8890042 204.412239,61.6873074 C204.860136,61.4854369 205.243448,61.2114698 205.562799,60.8646764 C205.881838,60.5180567 206.131534,60.111953 206.311853,59.6463652 C206.492068,59.1806732 206.582279,58.6840926 206.582279,58.1563802 L206.582279,58.1252483 C206.582279,57.5975359 206.492068,57.0984883 206.311853,56.6274803 C206.131534,56.1568544 205.879303,55.7481796 205.554952,55.4014209 C205.230704,55.054836 204.84201,54.7781587 204.388974,54.5710764 C203.935764,54.3642026 203.441615,54.2606961 202.906318,54.2606961 C202.370675,54.2606961 201.879199,54.3615619 201.431302,54.5633282 C200.983404,54.7650945 200.59985,55.0393048 200.280533,55.3859592 C199.96139,55.7326831 199.711798,56.1386131 199.53141,56.6042704 C199.35123,57.0698581 199.261227,57.5664735 199.261227,58.0942555 L199.261227,58.1252831 C199.261227,58.6529955 199.35123,59.152321 199.53141,59.6230511 C199.711798,60.0939897 199.964029,60.502595 200.288346,60.8491105 C200.612593,61.1959039 201.001322,61.4726159 201.454567,61.679455 C201.907534,61.8866415 202.401717,61.9899742 202.937222,61.9899742 Z M210.909623,52.6930969 L214.958097,52.6930969 C215.805835,52.6930969 216.583987,52.8303758 217.292518,53.1044124 C218.000598,53.3786922 218.610828,53.7589107 219.122755,54.2451372 C219.634578,54.7316069 220.030113,55.3032375 220.309324,55.9602027 C220.588465,56.6173763 220.728088,57.3286485 220.728088,58.0942277 L220.728088,58.12529 C220.728088,58.8911124 220.588465,59.6051295 220.309324,60.2672022 C220.030113,60.9294834 219.634578,61.5037894 219.122755,61.9900159 C218.610828,62.4764509 218.000598,62.8591362 217.292518,63.1384194 C216.584056,63.4178416 215.805835,63.5575526 214.958097,63.5575526 L210.909623,63.5575526 L210.909623,52.6930969 Z M214.942437,61.8347389 C215.511102,61.8347389 216.028238,61.7440188 216.493532,61.5621269 C216.958826,61.3802697 217.35443,61.1258989 217.68017,60.7984587 C218.005841,60.4710185 218.259079,60.0812798 218.440092,59.6293122 C218.620967,59.1773099 218.71156,58.6864275 218.71156,58.1565608 L218.71156,58.12529 C218.71156,57.5954233 218.621002,57.1019351 218.440092,56.6448252 C218.259079,56.1877153 218.005841,55.7955444 217.68017,55.4681737 C217.35443,55.1407335 216.958895,54.8837568 216.493532,54.6964446 C216.028238,54.5094798 215.511102,54.4159106 214.942437,54.4159106 L212.801911,54.4159106 L212.801911,61.8347389 L214.942437,61.8347389 Z M223.039033,52.6930969 L224.931321,52.6930969 L224.931321,57.2096457 L230.143029,57.2096457 L230.143029,52.6930969 L232.035317,52.6930969 L232.035317,63.5575526 L230.143029,63.5575526 L230.143029,58.9789487 L224.931321,58.9789487 L224.931321,63.5575179 L223.039033,63.5575179 L223.039033,52.6930969 Z M238.673804,52.6155591 L240.442059,52.6155591 L245.219308,63.5575318 L243.202954,63.5575318 L242.101666,60.9345007 L236.967634,60.9345007 L235.850789,63.5575318 L233.896451,63.5575318 L238.673804,52.6155591 Z M241.403655,59.242784 L239.526889,54.8970434 L237.66554,59.242784 L241.403655,59.242784 Z"></path>
            </g>
        </g>
    </g>
</svg>